# xmcd CD database file
#
# Track frame offsets:
#	150
#	20260
#	41757
#	58887
#	77970
#	98775
#	118940
#	142880
#	159360
#	177932
#
# Disc length: 2679 seconds
#
# Revision: 0
# Processed by: cddbd v1.5.1PL0 Copyright (c) Steve Scherf et al.
# Submitted via: CDex 1.51
#
DISCID=810a750a
DTITLE=SweetS - 5 elementS (DISC-1)
DYEAR=2005
DGENRE=JPop
TTITLE0=moongrow
TTITLE1=ミエナイツバサ
TTITLE2=captain smiley - AKI
TTITLE3=One - MIORI
TTITLE4=I am I - MAI
TTITLE5=after the rain - HARUNA
TTITLE6=Wishing upon the shooting star〜獅子座流星群〜 - AYA
TTITLE7=rising sun〜ヒカリ〜
TTITLE8=Earthship〜宇宙船地球号〜
TTITLE9=ありがとう
EXTD=YEAR: 2005
EXTT0=
EXTT1=
EXTT2=
EXTT3=
EXTT4=
EXTT5=
EXTT6=
EXTT7=
EXTT8=
EXTT9=
PLAYORDER=
